<svg version="1.1" id="Layer_1" xmlns="http://www.w3.org/2000/svg" xmlns:xlink="http://www.w3.org/1999/xlink" x="0px" y="0px"
	 width="100%" viewBox="0 0 865 474" enable-background="new 0 0 865 474" xml:space="preserve">
<path fill="#FFFFFF" opacity="1.000000" stroke="none" 
	d="
M847.000000,1.000000 
	C853.332336,1.000000 859.664673,1.000000 865.997803,1.000000 
	C865.998535,158.974030 865.998535,316.948059 865.998535,474.961060 
	C577.738220,474.961060 289.476379,474.961060 1.107290,474.961060 
	C1.107290,317.096558 1.107290,159.193024 1.107290,1.000000 
	C280.025757,1.000000 559.051636,1.000000 838.614929,1.358105 
	C832.525330,13.999646 823.443359,24.345913 813.605835,34.096706 
	C793.857666,53.670982 769.695129,64.846329 742.630737,71.216614 
	C736.503784,73.095711 730.748596,74.966942 724.599976,76.846115 
	C716.426758,79.463280 708.646973,82.072502 700.490112,84.742477 
	C691.711426,88.453217 683.309753,92.103203 674.557251,95.832748 
	C666.771301,100.520332 659.336304,105.128365 651.572510,109.849098 
	C644.692993,115.566147 638.142273,121.170494 631.269287,126.843269 
	C625.560059,133.243759 620.173218,139.575821 614.502319,146.076447 
	C609.697510,154.462097 605.176697,162.679199 600.417480,171.153015 
	C597.193176,182.271851 594.207336,193.133972 591.090515,204.383270 
	C590.059326,210.512039 589.159058,216.253632 588.143555,222.412659 
	C587.575867,227.857498 587.123291,232.884949 586.462402,238.262695 
	C585.911987,244.407196 585.570007,250.201355 585.133423,256.439880 
	C585.016724,259.901489 584.994629,262.918762 584.785828,266.280457 
	C584.537659,269.045746 584.476196,271.466583 584.329956,274.332245 
	C584.265564,277.179901 584.285950,279.582703 584.205322,282.445557 
	C583.859985,292.603668 583.615723,302.301788 583.282776,312.461853 
	C583.194092,325.560059 583.194092,338.196381 583.194092,351.195648 
	C584.811462,350.771606 585.902649,350.485504 587.306274,350.317749 
	C588.058289,350.436707 588.497925,350.437347 589.315430,350.591003 
	C590.502197,349.833588 591.814941,349.026855 592.027466,347.993774 
	C592.728455,344.585876 592.926697,341.078461 593.504395,337.640564 
	C597.415100,314.365723 605.120361,292.433472 617.138550,271.726135 
	C624.262817,262.673706 631.133850,253.845337 638.313965,244.886780 
	C646.077209,239.715347 653.531311,234.674088 661.321411,229.559326 
	C669.774841,226.698532 677.892395,223.911255 686.424194,221.135803 
	C693.900696,219.552887 700.962952,217.958145 708.453613,216.352997 
	C716.954041,214.340302 725.026123,212.338043 733.493286,210.289093 
	C743.454773,206.260193 753.021118,202.277985 762.935059,198.283218 
	C773.141846,191.364212 783.482178,185.031372 792.670593,177.325012 
	C797.760376,173.056152 800.923462,166.490036 805.137817,160.966187 
	C805.222900,160.994308 805.125183,161.015671 804.645020,161.024475 
	C798.856384,162.352219 793.450195,163.692505 788.232727,164.774368 
	C789.613159,163.600189 790.804810,162.684448 792.311157,161.681793 
	C797.742065,157.060760 802.858398,152.526627 808.276611,147.847260 
	C813.133545,141.843018 817.688599,135.984039 822.521484,129.939301 
	C831.197021,116.995979 837.508240,103.307777 841.762817,88.031754 
	C836.104553,90.906670 831.050354,93.474678 825.736145,95.715973 
	C826.104858,93.856102 826.697998,92.307205 827.367493,90.792068 
	C840.004822,62.192787 845.814941,32.102375 847.000000,1.000000 
M591.702271,369.856812 
	C596.782532,365.260254 596.532593,360.481995 590.536682,356.364319 
	C589.330322,356.276672 588.123962,356.189056 586.195007,356.052826 
	C582.036438,356.958130 579.960815,359.831360 580.184509,363.787598 
	C580.404663,367.681427 582.528992,370.523346 587.637634,370.970551 
	C588.756287,370.647522 589.874939,370.324463 591.702271,369.856812 
M445.837891,279.500702 
	C445.917236,278.145172 445.996552,276.789642 446.075897,275.434113 
	C446.305786,275.406189 446.535675,275.378265 446.765594,275.350311 
	C456.112793,304.882782 465.459991,334.415283 474.827087,364.010590 
	C476.366699,364.010590 477.563873,363.818420 478.677216,364.042633 
	C484.665588,365.248566 487.177399,362.584747 489.117004,356.906677 
	C496.496033,335.305054 504.509064,313.919983 512.515442,291.818237 
	C513.443054,293.988373 514.166016,295.468903 514.720947,297.009949 
	C521.642212,316.229492 528.525085,335.462860 535.448120,354.681763 
	C539.013062,364.578217 539.040527,364.571747 549.672180,363.885712 
	C549.971191,363.866455 550.253784,363.591339 550.562988,363.425385 
	C560.429749,332.151245 570.300293,300.865326 580.266357,269.276428 
	C575.267395,269.276428 570.955688,269.276428 566.264526,269.276428 
	C559.103577,293.166199 551.945129,317.047394 544.483276,341.940857 
	C543.691772,340.005768 543.289001,339.126373 542.966919,338.218323 
	C535.305420,316.620361 527.551880,295.053894 520.098938,273.384094 
	C518.881714,269.845123 517.169006,268.786469 513.690979,269.089539 
	C510.205963,269.393250 506.930695,268.323975 505.287323,273.483063 
	C500.600861,288.195374 495.142883,302.662140 489.974579,317.220612 
	C487.182251,325.086304 484.361481,332.941895 481.553528,340.802002 
	C479.992584,339.236511 479.491760,337.744507 479.041656,336.237396 
	C472.765839,315.223053 466.527771,294.197296 460.161163,273.210510 
	C459.707855,271.716278 458.531219,269.593994 457.336334,269.322113 
	C452.696869,268.266418 447.902252,267.245209 443.187866,267.339203 
	C437.929657,267.444000 432.475525,268.110626 427.512543,269.756592 
	C422.377380,271.459625 417.729279,274.631317 412.644409,277.276978 
	C412.644409,274.806915 412.644409,272.198608 412.644409,269.437958 
	C408.058868,269.437958 403.824188,269.437958 399.518341,269.437958 
	C399.518341,301.098846 399.518341,332.469543 399.518341,363.654907 
	C404.142242,363.654907 408.388153,363.654907 412.850769,363.654907 
	C412.850769,362.152283 412.846954,361.004395 412.851318,359.856476 
	C412.919800,341.858887 412.708221,323.854401 413.150024,305.865936 
	C413.486877,292.149567 421.555298,283.645203 435.047333,281.649048 
	C438.599396,281.123535 442.180573,280.794647 445.837891,279.500702 
M798.609009,279.970978 
	C781.406128,262.692810 745.791870,263.574768 730.240112,286.181000 
	C721.998840,298.160583 720.140320,311.518127 721.955505,325.688141 
	C725.374084,352.375275 750.168396,369.983887 776.481018,364.503632 
	C786.354797,362.447174 794.668762,357.893951 801.669312,349.996338 
	C801.669312,356.276794 801.998840,361.900543 801.590942,367.470245 
	C801.000305,375.535095 797.759705,382.420319 791.641235,388.023834 
	C778.806213,399.778687 748.114502,397.284882 740.626160,375.402252 
	C740.143860,373.992767 738.530273,372.145844 737.257812,371.987213 
	C733.568420,371.527252 729.784607,371.824341 725.938293,371.824341 
	C733.061401,410.436188 778.244324,414.339386 798.266785,399.346008 
	C810.989990,389.818481 815.510986,376.669342 815.526123,361.442169 
	C815.555237,332.126343 815.538147,302.810455 815.523254,273.494598 
	C815.522583,272.195343 815.353760,270.896179 815.251160,269.422211 
	C810.783569,269.422211 806.559937,269.422211 801.767944,269.422211 
	C801.767944,274.019287 801.767944,278.353973 801.767944,283.286377 
	C800.489502,281.945587 799.800781,281.223358 798.609009,279.970978 
M75.304512,364.152374 
	C85.872414,364.682648 96.218300,363.722595 106.059944,359.489624 
	C121.510086,352.844421 130.935059,340.939026 136.485977,325.088623 
	C131.784668,325.088623 127.630653,325.088623 123.359154,325.088623 
	C122.758369,326.260468 122.074921,327.397247 121.569481,328.608307 
	C110.105736,356.075928 71.624680,359.725525 52.788086,343.663696 
	C39.350788,332.205811 34.812309,317.336487 35.566376,300.413696 
	C37.409927,259.040588 76.094917,243.677780 106.068604,260.721558 
	C114.507225,265.519989 119.605316,273.275848 123.110336,281.836914 
	C127.663841,281.836914 131.876953,281.836914 136.176224,281.836914 
	C123.814857,241.635925 77.955719,234.932129 51.610249,250.361649 
	C29.550894,263.280914 18.840231,290.598785 24.746151,318.061310 
	C30.391676,344.313049 48.808685,361.371918 75.304512,364.152374 
M377.308197,340.830017 
	C378.710022,336.934418 380.526672,333.133972 381.445648,329.127625 
	C387.021210,304.820038 376.980560,275.980011 348.027954,269.530243 
	C328.887512,265.266357 311.748444,269.377045 299.167175,285.267914 
	C288.007172,299.363647 286.662750,315.669495 291.254486,332.605225 
	C296.071167,350.370789 310.911530,362.927124 329.052338,364.939514 
	C350.019989,367.265533 368.102173,358.432922 377.308197,340.830017 
M198.397766,365.178680 
	C207.945206,364.761108 216.674927,361.895691 224.343781,356.165405 
	C237.560272,346.289856 242.718323,332.349731 242.713440,316.561249 
	C242.708191,299.556763 236.876450,284.777832 221.924103,275.229462 
	C203.083054,263.197815 175.356567,266.792450 161.273010,282.150208 
	C145.129013,299.754822 145.312729,329.873627 157.929092,347.010132 
	C167.699020,360.280396 181.294724,365.580841 198.397766,365.178680 
M690.975403,297.914429 
	C691.374207,300.368896 692.080566,302.818390 692.120300,305.278656 
	C692.330322,318.263672 692.388184,331.251312 692.465820,344.238220 
	C692.504456,350.701874 692.472534,357.165924 692.472534,363.770020 
	C697.183350,363.770020 701.423096,363.770020 705.131897,363.770020 
	C705.131897,342.262848 705.852905,320.963745 704.856323,299.745361 
	C704.276489,287.400421 697.782654,277.047180 685.928345,271.816864 
	C669.041870,264.366180 652.946655,265.396820 638.690308,278.367493 
	C638.419800,278.613586 637.835022,278.514343 637.048767,278.625366 
	C637.048767,275.481445 637.048767,272.547180 637.048767,269.487579 
	C632.499023,269.487579 628.280701,269.487579 624.038940,269.487579 
	C624.038940,301.079590 624.038940,332.335846 624.038940,363.720337 
	C628.485657,363.720337 632.711548,363.720337 637.177063,363.720337 
	C637.177063,356.626587 637.097229,349.817139 637.194336,343.010193 
	C637.374817,330.364532 637.115906,317.680298 638.045471,305.086334 
	C639.060791,291.329895 647.961365,281.936920 660.607544,280.278473 
	C673.532959,278.583435 685.893982,282.576447 690.975403,297.914429 
M258.983124,271.500000 
	C258.983124,302.247498 258.983124,332.994995 258.983124,363.709534 
	C263.762543,363.709534 267.989044,363.709534 272.247131,363.709534 
	C272.247131,321.343933 272.247131,279.286377 272.247131,237.285187 
	C267.694427,237.285187 263.446533,237.285187 258.983124,237.285187 
	C258.983124,248.557388 258.983124,259.528687 258.983124,271.500000 
M379.215668,404.921082 
	C379.006531,405.553009 378.778015,406.179291 378.591095,406.817719 
	C375.388458,417.757050 379.519104,428.639679 388.303558,431.668854 
	C396.454529,434.479553 403.473022,432.632568 408.742920,425.067078 
	C408.742920,428.826050 409.073364,432.029907 408.666992,435.137451 
	C408.026031,440.038544 405.141541,443.438965 400.207214,444.449921 
	C395.369232,445.441193 390.488129,444.670288 387.769684,440.296112 
	C385.644714,436.876862 383.354889,436.401215 380.042450,437.323975 
	C381.120270,445.398529 388.171417,450.675323 397.687561,450.528778 
	C407.266785,450.381317 414.516754,444.768311 414.852722,435.922668 
	C415.363831,422.466309 414.986481,408.976227 414.986481,395.491150 
	C412.930450,395.491150 411.038177,395.491150 409.177795,395.491150 
	C409.008789,397.876465 408.864594,399.911926 408.689301,402.386017 
	C399.082397,391.493591 385.959320,392.571381 379.215668,404.921082 
M128.148102,431.459717 
	C128.148102,415.217438 128.148102,398.975128 128.148102,382.660095 
	C125.789986,382.660095 124.006516,382.660095 121.496155,382.660095 
	C121.496155,388.950012 121.496155,395.046295 121.496155,401.804871 
	C113.107742,393.575073 102.657265,392.754364 95.976418,399.143402 
	C89.083481,405.735199 88.603683,420.281586 95.038536,427.576996 
	C101.394165,434.782532 111.342384,434.459564 121.373718,426.490967 
	C121.647072,428.557953 121.894859,430.431641 122.183067,432.610992 
	C124.174416,432.456543 125.966797,432.317566 128.148102,431.459717 
M539.652222,416.794373 
	C538.139587,417.715271 536.152344,418.292450 535.194641,419.615112 
	C530.455872,426.159821 522.340027,428.668427 514.914551,425.556976 
	C506.552094,422.052948 502.597961,410.694977 506.395111,400.756622 
	C508.728790,394.648682 513.123047,391.059570 519.764587,390.427429 
	C526.089661,389.825317 531.548889,391.854248 534.750244,397.256012 
	C537.029053,401.101013 539.575500,400.847778 542.948303,400.188477 
	C539.660400,386.900543 524.316040,380.293396 511.319672,386.282745 
	C501.123199,390.981781 496.214447,402.681519 499.043671,415.541779 
	C501.110596,424.936981 508.834900,431.765228 518.601929,432.831116 
	C528.934509,433.958710 538.196655,429.052521 542.059692,420.401550 
	C542.872681,418.580963 544.312683,416.461975 539.652222,416.794373 
M82.873772,402.610107 
	C82.873772,400.187683 82.873772,397.765228 82.873772,395.478363 
	C80.202095,395.478363 78.282967,395.478363 76.284225,395.478363 
	C76.159615,397.714661 76.054321,399.604095 75.930046,401.834320 
	C68.432083,393.768921 57.968628,392.635620 50.877254,398.785858 
	C43.826057,404.901215 42.649296,420.163818 49.439919,427.053162 
	C52.238220,429.892120 56.656998,431.810242 60.651157,432.636078 
	C66.694466,433.885529 71.811951,430.954529 75.876381,425.755005 
	C76.088821,428.343048 76.246750,430.267090 76.409813,432.253662 
	C78.656174,432.253662 80.570320,432.253662 82.873764,432.253662 
	C82.873764,422.491119 82.873764,413.036011 82.873772,402.610107 
M179.033249,427.444427 
	C185.295166,433.283081 192.536880,434.261902 200.330841,431.381409 
	C205.634872,429.421173 208.839569,425.504272 210.015411,419.807465 
	C206.176636,419.121277 203.497437,418.948242 201.583282,423.091034 
	C199.568024,427.452667 192.261032,428.738434 187.319748,426.515564 
	C182.636215,424.408600 180.575699,420.388031 181.669479,415.050110 
	C191.045105,415.050110 200.488632,415.050110 209.881989,415.050110 
	C211.207962,404.711029 206.334824,397.204651 197.259521,395.230194 
	C187.052628,393.009552 177.686127,398.049377 175.225220,407.462311 
	C173.431274,414.324158 174.093765,420.987396 179.033249,427.444427 
M370.204010,412.007843 
	C370.641907,398.673279 362.426971,393.274841 353.063416,395.126923 
	C349.431152,395.845367 346.139557,398.286072 342.782623,399.899048 
	C342.630829,398.842529 342.378693,397.087311 342.121368,395.296387 
	C340.055267,395.296387 338.273529,395.296387 336.234161,395.296387 
	C336.234161,407.683472 336.234161,419.905670 336.234161,432.240417 
	C338.365051,432.240417 340.255829,432.240417 342.562592,432.240417 
	C342.562592,425.301849 342.511688,418.676453 342.579651,412.052277 
	C342.628693,407.270996 344.097137,403.154938 348.840973,401.069214 
	C356.478058,397.711456 363.549164,402.537598 363.761261,411.355438 
	C363.928436,418.306244 363.794830,425.264252 363.794830,432.201538 
	C366.181030,432.201538 368.065399,432.201538 370.204559,432.201538 
	C370.204559,425.538147 370.204559,419.229340 370.204010,412.007843 
M311.120239,404.378204 
	C307.579132,395.948914 299.272186,392.472412 290.695618,395.850250 
	C286.398438,397.542633 283.962006,400.626831 284.005798,405.337372 
	C284.050446,410.138855 286.648346,412.986572 291.178619,414.269135 
	C294.844849,415.307037 298.717010,415.975189 302.052429,417.679138 
	C303.828156,418.586395 305.985840,421.701752 305.587524,423.176819 
	C305.064178,425.115051 302.374603,427.422882 300.295074,427.800262 
	C294.918518,428.775970 291.164398,425.976776 289.513031,420.681610 
	C287.466949,420.829224 285.732361,420.954346 283.953522,421.082642 
	C285.714355,430.108307 294.039612,434.794403 303.475983,432.442810 
	C308.911072,431.088379 311.915527,427.726593 312.017853,422.884918 
	C312.128387,417.654816 309.831146,414.785522 304.025696,413.007172 
	C300.535980,411.938141 296.813141,411.359253 293.609314,409.740265 
	C291.965057,408.909363 290.169495,406.144867 290.378906,404.500916 
	C290.592316,402.825684 292.956482,400.597534 294.775879,400.118317 
	C299.153839,398.965027 302.862335,400.320953 305.059479,404.863068 
	C305.569611,405.917694 307.376068,406.671753 308.695007,406.882690 
	C309.450897,407.003540 310.426086,405.753021 311.120239,404.378204 
M141.709183,397.646057 
	C139.419250,396.516235 137.129303,395.386383 134.839371,394.256561 
	C134.533020,394.732544 134.226654,395.208527 133.920303,395.684509 
	C138.443832,407.226288 142.868210,418.809448 147.637329,430.248810 
	C148.139267,431.452820 150.686874,432.425690 152.257828,432.386932 
	C153.818069,432.348480 156.189529,431.268799 156.744904,430.004303 
	C160.006638,422.578064 162.863434,414.972870 165.810196,407.409882 
	C167.335175,403.495972 168.764206,399.544708 170.293198,395.459045 
	C163.673325,394.920776 163.667603,394.918610 161.571823,400.424438 
	C158.581390,408.280579 155.600357,416.140320 152.197830,425.097534 
	C148.552353,415.579987 145.259811,406.983887 141.709183,397.646057 
M441.365326,400.506317 
	C441.365326,411.078949 441.365326,421.651581 441.365326,432.249451 
	C449.587433,432.249451 457.113678,432.249451 464.980469,432.249451 
	C464.818329,430.447937 464.693512,429.060883 464.537048,427.322540 
	C458.920197,427.322540 453.658630,427.322540 448.005005,427.322540 
	C448.005005,413.051056 448.005005,399.159088 448.005005,385.152893 
	C445.568359,385.152893 443.542328,385.152893 441.365479,385.152893 
	C441.365479,390.209351 441.365479,394.859619 441.365326,400.506317 
M470.795807,409.499329 
	C470.795807,417.111267 470.795807,424.723175 470.795807,432.306519 
	C478.838043,432.306519 486.276794,432.306519 493.763306,432.306519 
	C493.763306,430.620972 493.763306,429.198181 493.763306,427.300812 
	C488.114716,427.300812 482.710846,427.300812 476.937134,427.300812 
	C476.937134,412.921631 476.937134,399.013031 476.937134,385.168152 
	C474.660065,385.168152 472.784851,385.168152 470.795868,385.168152 
	C470.795868,393.193756 470.795868,400.846558 470.795807,409.499329 
M252.176514,387.623230 
	C250.259369,386.930023 248.342224,386.236816 245.743973,385.297333 
	C245.743973,389.487030 245.743973,392.251160 245.743973,394.979401 
	C243.789642,395.130768 242.169830,395.256256 240.402328,395.393188 
	C240.402328,397.250549 240.402328,398.822113 240.402328,400.678680 
	C242.355362,400.809540 244.073654,400.924683 245.568115,401.024841 
	C245.812439,401.610138 245.930435,401.761444 245.931061,401.913177 
	C245.955093,407.734314 245.975372,413.555450 245.981567,419.376617 
	C245.993134,430.244293 251.016891,434.222290 261.786194,431.899292 
	C261.786194,430.276123 261.786194,428.664612 261.786194,427.039062 
	C257.949707,426.352234 252.797226,427.966583 252.578613,421.845825 
	C252.332031,414.941559 252.521835,408.021759 252.521835,400.747803 
	C255.769989,400.747803 258.712524,400.747803 261.816406,400.747803 
	C261.816406,398.784668 261.816406,397.193604 261.816406,395.034546 
	C258.579010,395.034546 255.521988,395.034546 252.187042,395.034546 
	C252.187042,392.504761 252.187042,390.532196 252.176514,387.623230 
M229.434540,396.934021 
	C228.042389,398.030731 226.650253,399.127411 224.977737,400.445007 
	C224.702148,398.561859 224.474258,397.004730 224.253784,395.498138 
	C222.107117,395.498138 220.240295,395.498138 218.385986,395.498138 
	C218.385986,407.966583 218.385986,420.040680 218.385986,432.206329 
	C220.544189,432.206329 222.415619,432.206329 224.600296,432.206329 
	C224.600296,426.846252 224.593109,421.873077 224.601715,416.899902 
	C224.622086,405.144897 225.789307,403.734924 237.302658,401.448303 
	C237.573318,401.394531 237.786163,401.049652 237.989883,400.872040 
	C237.989883,398.891266 237.989883,396.953125 237.989883,394.267487 
	C235.083069,395.125000 232.600479,395.857361 229.434540,396.934021 
M274.888733,432.315521 
	C275.137390,424.573120 275.437073,416.831879 275.615417,409.087830 
	C275.720917,404.505890 275.634705,399.919525 275.634705,395.340027 
	C273.104279,395.340027 271.340210,395.340027 269.393494,395.340027 
	C269.393494,407.795471 269.393494,419.992645 269.393494,432.586639 
	C271.165955,432.586639 272.629578,432.586639 274.888733,432.315521 
M319.955933,413.500153 
	C319.955933,419.764618 319.955933,426.029083 319.955933,432.219116 
	C322.499329,432.219116 324.387543,432.219116 326.327759,432.219116 
	C326.327759,419.737854 326.327759,407.637970 326.327759,395.355835 
	C324.154572,395.355835 322.255249,395.355835 319.955933,395.355835 
	C319.955933,401.232391 319.955933,406.866760 319.955933,413.500153 
M276.711792,383.815460 
	C275.873932,382.878479 274.987885,381.121399 274.207855,381.167297 
	C272.312317,381.278778 270.201294,381.883911 268.733459,383.013275 
	C268.166168,383.449738 268.700287,386.845581 269.434357,387.139282 
	C271.163391,387.831055 273.360352,387.727570 275.270020,387.390594 
	C275.938019,387.272736 276.319183,385.529419 276.711792,383.815460 
M325.432068,381.096619 
	C323.401917,381.693268 321.237518,382.049469 319.436005,383.055542 
	C318.985382,383.307220 319.216644,386.306061 319.994354,386.882690 
	C321.243225,387.808716 323.460754,388.480804 324.822235,387.998688 
	C328.440002,386.717590 328.248657,384.148224 325.432068,381.096619 
z"/>
<path fill="#F48232" opacity="1.000000" stroke="none" 
	d="
M846.555847,1.000000 
	C845.814941,32.102375 840.004822,62.192787 827.367493,90.792068 
	C826.697998,92.307205 826.104858,93.856102 825.759521,95.703476 
	C826.042908,96.017693 826.039185,95.963806 825.672302,95.888786 
	C825.022766,96.224586 824.740173,96.635406 824.295532,97.320778 
	C822.104858,101.073814 820.076233,104.552284 817.886841,108.329216 
	C813.479187,114.400734 809.232239,120.173798 804.688171,126.090729 
	C802.903748,127.485321 801.416382,128.736038 799.587341,129.951630 
	C796.498413,127.112350 793.749817,124.309502 791.004211,121.503838 
	C775.791138,105.958267 760.567078,90.423325 745.392822,74.839943 
	C744.400085,73.820374 743.790344,72.427818 743.002502,71.208748 
	C769.695129,64.846329 793.857666,53.670982 813.605835,34.096706 
	C823.443359,24.345913 832.525330,13.999646 839.076172,1.358105 
	C841.370544,1.000000 843.741150,1.000000 846.555847,1.000000 
z"/>
<path fill="#272424" opacity="1.000000" stroke="none" 
	d="
M445.793152,279.938110 
	C442.180573,280.794647 438.599396,281.123535 435.047333,281.649048 
	C421.555298,283.645203 413.486877,292.149567 413.150024,305.865936 
	C412.708221,323.854401 412.919800,341.858887 412.851318,359.856476 
	C412.846954,361.004395 412.850769,362.152283 412.850769,363.654907 
	C408.388153,363.654907 404.142242,363.654907 399.518341,363.654907 
	C399.518341,332.469543 399.518341,301.098846 399.518341,269.437958 
	C403.824188,269.437958 408.058868,269.437958 412.644409,269.437958 
	C412.644409,272.198608 412.644409,274.806915 412.644409,277.276978 
	C417.729279,274.631317 422.377380,271.459625 427.512543,269.756592 
	C432.475525,268.110626 437.929657,267.444000 443.187866,267.339203 
	C447.902252,267.245209 452.696869,268.266418 457.336334,269.322113 
	C458.531219,269.593994 459.707855,271.716278 460.161163,273.210510 
	C466.527771,294.197296 472.765839,315.223053 479.041656,336.237396 
	C479.491760,337.744507 479.992584,339.236511 481.553528,340.802002 
	C484.361481,332.941895 487.182251,325.086304 489.974579,317.220612 
	C495.142883,302.662140 500.600861,288.195374 505.287323,273.483063 
	C506.930695,268.323975 510.205963,269.393250 513.690979,269.089539 
	C517.169006,268.786469 518.881714,269.845123 520.098938,273.384094 
	C527.551880,295.053894 535.305420,316.620361 542.966919,338.218323 
	C543.289001,339.126373 543.691772,340.005768 544.483276,341.940857 
	C551.945129,317.047394 559.103577,293.166199 566.264526,269.276428 
	C570.955688,269.276428 575.267395,269.276428 580.266357,269.276428 
	C570.300293,300.865326 560.429749,332.151245 550.562988,363.425385 
	C550.253784,363.591339 549.971191,363.866455 549.672180,363.885712 
	C539.040527,364.571747 539.013062,364.578217 535.448120,354.681763 
	C528.525085,335.462860 521.642212,316.229492 514.720947,297.009949 
	C514.166016,295.468903 513.443054,293.988373 512.515442,291.818237 
	C504.509064,313.919983 496.496033,335.305054 489.117004,356.906677 
	C487.177399,362.584747 484.665588,365.248566 478.677216,364.042633 
	C477.563873,363.818420 476.366699,364.010590 474.827087,364.010590 
	C465.459991,334.415283 456.112793,304.882782 446.765594,275.350311 
	C446.535675,275.378265 446.305786,275.406189 446.075897,275.434113 
	C445.996552,276.789642 445.917236,278.145172 445.793152,279.938110 
z"/>
<path fill="#282525" opacity="1.000000" stroke="none" 
	d="
M798.860596,280.236023 
	C799.800781,281.223358 800.489502,281.945587 801.767944,283.286377 
	C801.767944,278.353973 801.767944,274.019287 801.767944,269.422211 
	C806.559937,269.422211 810.783569,269.422211 815.251160,269.422211 
	C815.353760,270.896179 815.522583,272.195343 815.523254,273.494598 
	C815.538147,302.810455 815.555237,332.126343 815.526123,361.442169 
	C815.510986,376.669342 810.989990,389.818481 798.266785,399.346008 
	C778.244324,414.339386 733.061401,410.436188 725.938293,371.824341 
	C729.784607,371.824341 733.568420,371.527252 737.257812,371.987213 
	C738.530273,372.145844 740.143860,373.992767 740.626160,375.402252 
	C748.114502,397.284882 778.806213,399.778687 791.641235,388.023834 
	C797.759705,382.420319 801.000305,375.535095 801.590942,367.470245 
	C801.998840,361.900543 801.669312,356.276794 801.669312,349.996338 
	C794.668762,357.893951 786.354797,362.447174 776.481018,364.503632 
	C750.168396,369.983887 725.374084,352.375275 721.955505,325.688141 
	C720.140320,311.518127 721.998840,298.160583 730.240112,286.181000 
	C745.791870,263.574768 781.406128,262.692810 798.860596,280.236023 
M754.090820,283.294403 
	C751.698059,284.766052 749.024719,285.922424 746.958740,287.761230 
	C734.738892,298.637604 733.092896,312.671906 736.389221,327.504456 
	C740.600830,346.455872 758.428894,356.335663 777.245728,351.456482 
	C803.444763,344.663025 807.820190,311.017365 794.720581,293.487427 
	C785.782776,281.526764 771.205994,277.790710 754.090820,283.294403 
z"/>
<path fill="#272424" opacity="1.000000" stroke="none" 
	d="
M74.865860,364.115540 
	C48.808685,361.371918 30.391676,344.313049 24.746151,318.061310 
	C18.840231,290.598785 29.550894,263.280914 51.610249,250.361649 
	C77.955719,234.932129 123.814857,241.635925 136.176224,281.836914 
	C131.876953,281.836914 127.663841,281.836914 123.110336,281.836914 
	C119.605316,273.275848 114.507225,265.519989 106.068604,260.721558 
	C76.094917,243.677780 37.409927,259.040588 35.566376,300.413696 
	C34.812309,317.336487 39.350788,332.205811 52.788086,343.663696 
	C71.624680,359.725525 110.105736,356.075928 121.569481,328.608307 
	C122.074921,327.397247 122.758369,326.260468 123.359154,325.088623 
	C127.630653,325.088623 131.784668,325.088623 136.485977,325.088623 
	C130.935059,340.939026 121.510086,352.844421 106.059944,359.489624 
	C96.218300,363.722595 85.872414,364.682648 74.865860,364.115540 
z"/>
<path fill="#272424" opacity="1.000000" stroke="none" 
	d="
M377.160065,341.171387 
	C368.102173,358.432922 350.019989,367.265533 329.052338,364.939514 
	C310.911530,362.927124 296.071167,350.370789 291.254486,332.605225 
	C286.662750,315.669495 288.007172,299.363647 299.167175,285.267914 
	C311.748444,269.377045 328.887512,265.266357 348.027954,269.530243 
	C376.980560,275.980011 387.021210,304.820038 381.445648,329.127625 
	C380.526672,333.133972 378.710022,336.934418 377.160065,341.171387 
M366.518219,300.322296 
	C356.500275,275.722382 322.634613,275.293854 310.045563,292.592957 
	C301.570892,304.238342 300.956818,317.150391 304.858704,330.571533 
	C308.309875,342.442261 318.336823,350.787018 330.810638,352.148407 
	C344.833893,353.678986 356.599854,349.715302 364.074280,337.139923 
	C370.868652,325.708679 370.620270,313.441467 366.518219,300.322296 
z"/>
<path fill="#272424" opacity="1.000000" stroke="none" 
	d="
M197.915787,365.179077 
	C181.294724,365.580841 167.699020,360.280396 157.929092,347.010132 
	C145.312729,329.873627 145.129013,299.754822 161.273010,282.150208 
	C175.356567,266.792450 203.083054,263.197815 221.924103,275.229462 
	C236.876450,284.777832 242.708191,299.556763 242.713440,316.561249 
	C242.718323,332.349731 237.560272,346.289856 224.343781,356.165405 
	C216.674927,361.895691 207.945206,364.761108 197.915787,365.179077 
M227.757690,305.053284 
	C221.008087,277.882385 188.880066,275.046021 173.932785,288.253113 
	C164.376617,296.696747 161.847107,307.823944 162.613235,319.859131 
	C163.470459,333.324982 168.756317,344.531342 181.987274,349.856232 
	C194.377014,354.842590 206.722198,353.858795 217.146927,345.072998 
	C229.456421,334.698730 230.777481,320.716217 227.757690,305.053284 
z"/>
<path fill="#262323" opacity="1.000000" stroke="none" 
	d="
M690.901123,297.511475 
	C685.893982,282.576447 673.532959,278.583435 660.607544,280.278473 
	C647.961365,281.936920 639.060791,291.329895 638.045471,305.086334 
	C637.115906,317.680298 637.374817,330.364532 637.194336,343.010193 
	C637.097229,349.817139 637.177063,356.626587 637.177063,363.720337 
	C632.711548,363.720337 628.485657,363.720337 624.038940,363.720337 
	C624.038940,332.335846 624.038940,301.079590 624.038940,269.487579 
	C628.280701,269.487579 632.499023,269.487579 637.048767,269.487579 
	C637.048767,272.547180 637.048767,275.481445 637.048767,278.625366 
	C637.835022,278.514343 638.419800,278.613586 638.690308,278.367493 
	C652.946655,265.396820 669.041870,264.366180 685.928345,271.816864 
	C697.782654,277.047180 704.276489,287.400421 704.856323,299.745361 
	C705.852905,320.963745 705.131897,342.262848 705.131897,363.770020 
	C701.423096,363.770020 697.183350,363.770020 692.472534,363.770020 
	C692.472534,357.165924 692.504456,350.701874 692.465820,344.238220 
	C692.388184,331.251312 692.330322,318.263672 692.120300,305.278656 
	C692.080566,302.818390 691.374207,300.368896 690.901123,297.511475 
z"/>
<path fill="#F16846" opacity="1.000000" stroke="none" 
	d="
M674.908142,95.753204 
	C683.309753,92.103203 691.711426,88.453217 700.632019,85.072144 
	C706.541077,91.167786 711.820374,97.101898 717.342773,102.800354 
	C731.757324,117.674530 746.292114,132.432236 760.726868,147.287018 
	C761.708496,148.297211 762.258301,149.727020 762.677979,151.121262 
	C759.229248,152.504257 756.111450,153.727646 752.600098,154.969177 
	C746.140564,156.647751 740.074524,158.308212 733.970581,159.626221 
	C733.396912,158.465637 732.973572,157.539780 732.308411,156.845657 
	C723.472717,147.625473 714.660217,138.381973 705.724854,129.258942 
	C697.935791,121.306259 689.880737,113.611382 682.189209,105.567390 
	C679.395935,102.646172 677.314392,99.044449 674.908142,95.753204 
z"/>
<path fill="#F05D4F" opacity="1.000000" stroke="none" 
	d="
M674.557251,95.832764 
	C677.314392,99.044449 679.395935,102.646172 682.189209,105.567390 
	C689.880737,113.611382 697.935791,121.306259 705.724854,129.258942 
	C714.660217,138.381973 723.472717,147.625473 732.308411,156.845657 
	C732.973572,157.539780 733.396912,158.465637 733.633240,159.788483 
	C727.876587,162.162369 722.419373,164.031555 716.561523,165.929443 
	C712.780029,166.674286 709.399231,167.390427 705.882874,167.796143 
	C696.908813,158.234390 688.139587,148.915512 679.210632,139.752335 
	C671.541748,131.882217 663.607849,124.269424 655.981262,116.359581 
	C654.222839,114.535934 653.240601,111.963982 651.901245,109.736389 
	C659.336304,105.128365 666.771301,100.520332 674.557251,95.832764 
z"/>
<path fill="#F2733D" opacity="1.000000" stroke="none" 
	d="
M763.008911,150.961670 
	C762.258301,149.727020 761.708496,148.297211 760.726868,147.287018 
	C746.292114,132.432236 731.757324,117.674530 717.342773,102.800354 
	C711.820374,97.101898 706.541077,91.167786 701.009155,85.011391 
	C708.646973,82.072502 716.426758,79.463280 724.605103,77.224113 
	C725.650208,78.876579 726.039429,80.401733 726.983887,81.403130 
	C734.832520,89.724731 742.793457,97.940239 750.701416,106.206070 
	C761.813293,117.820984 772.908813,129.451584 783.845459,141.374741 
	C780.453064,143.448669 777.226562,145.223312 773.634033,147.035370 
	C769.848328,148.369080 766.428650,149.665375 763.008911,150.961670 
z"/>
<path fill="#EF5357" opacity="1.000000" stroke="none" 
	d="
M651.572510,109.849091 
	C653.240601,111.963982 654.222839,114.535934 655.981262,116.359581 
	C663.607849,124.269424 671.541748,131.882217 679.210632,139.752335 
	C688.139587,148.915512 696.908813,158.234390 705.772217,168.034851 
	C705.520020,169.034607 705.242859,169.485199 704.574463,169.954559 
	C700.782410,171.297012 697.381531,172.620712 693.603149,173.966309 
	C689.494568,175.356964 685.763489,176.725693 681.891785,177.786301 
	C672.552063,167.870056 663.458313,158.158081 654.120178,148.686996 
	C646.766846,141.228943 639.112305,134.067841 631.591553,126.774841 
	C638.142273,121.170494 644.692993,115.566147 651.572510,109.849091 
z"/>
<path fill="#2A2727" opacity="1.000000" stroke="none" 
	d="
M258.983124,271.000000 
	C258.983124,259.528687 258.983124,248.557388 258.983124,237.285187 
	C263.446533,237.285187 267.694427,237.285187 272.247131,237.285187 
	C272.247131,279.286377 272.247131,321.343933 272.247131,363.709534 
	C267.989044,363.709534 263.762543,363.709534 258.983124,363.709534 
	C258.983124,332.994995 258.983124,302.247498 258.983124,271.000000 
z"/>
<path fill="#EE4A5F" opacity="1.000000" stroke="none" 
	d="
M631.269287,126.843277 
	C639.112305,134.067841 646.766846,141.228943 654.120178,148.686996 
	C663.458313,158.158081 672.552063,167.870056 681.889465,178.015976 
	C682.027710,178.553772 682.007202,179.014771 681.650085,179.042831 
	C678.527222,180.690292 675.761414,182.309708 672.642151,183.986664 
	C668.207336,186.368027 664.126038,188.691849 659.741333,190.872711 
	C650.462036,181.820923 641.455566,172.942688 632.521179,163.992538 
	C626.556458,158.017319 620.694336,151.939682 614.786316,145.907883 
	C620.173218,139.575821 625.560059,133.243759 631.269287,126.843277 
z"/>
<path fill="#ED4067" opacity="1.000000" stroke="none" 
	d="
M614.502319,146.076447 
	C620.694336,151.939682 626.556458,158.017319 632.521179,163.992538 
	C641.455566,172.942688 650.462036,181.820923 659.714172,191.110458 
	C659.990479,191.491180 659.950745,191.968307 659.643188,192.105530 
	C656.551880,194.468140 653.768250,196.693542 650.682556,199.070236 
	C646.607971,202.530914 642.835388,205.840302 638.919373,208.835129 
	C637.356262,206.686203 636.107666,204.682770 634.488892,203.045258 
	C624.769104,193.212967 614.994446,183.434128 605.149780,173.727081 
	C603.918518,172.513000 602.166565,171.826996 600.655823,170.896301 
	C605.176697,162.679199 609.697510,154.462097 614.502319,146.076447 
z"/>
<path fill="#F37B36" opacity="1.000000" stroke="none" 
	d="
M784.011292,141.075470 
	C772.908813,129.451584 761.813293,117.820984 750.701416,106.206070 
	C742.793457,97.940239 734.832520,89.724731 726.983887,81.403130 
	C726.039429,80.401733 725.650208,78.876579 724.998535,77.216171 
	C730.748596,74.966942 736.503784,73.095711 742.630737,71.216614 
	C743.790344,72.427818 744.400085,73.820374 745.392822,74.839943 
	C760.567078,90.423325 775.791138,105.958267 791.004211,121.503838 
	C793.749817,124.309502 796.498413,127.112350 799.458313,130.258499 
	C796.777649,133.043198 793.884277,135.485916 790.641479,137.984711 
	C788.198486,139.052338 786.104858,140.063904 784.011292,141.075470 
z"/>
<path fill="#EC386E" opacity="1.000000" stroke="none" 
	d="
M600.417480,171.153015 
	C602.166565,171.826996 603.918518,172.513000 605.149780,173.727081 
	C614.994446,183.434128 624.769104,193.212967 634.488892,203.045258 
	C636.107666,204.682770 637.356262,206.686203 638.895508,209.094681 
	C638.983826,210.017075 638.952576,210.365356 638.640381,210.916901 
	C633.206177,217.728409 628.052979,224.336655 622.661865,231.056854 
	C621.996521,231.467239 621.569031,231.765686 620.830200,231.921555 
	C613.952271,224.966827 607.507812,218.030258 600.760925,211.401459 
	C597.908936,208.599365 594.420532,206.444916 591.221436,203.996094 
	C594.207336,193.133972 597.193176,182.271851 600.417480,171.153015 
z"/>
<path fill="#2A2727" opacity="1.000000" stroke="none" 
	d="
M379.388123,404.580322 
	C385.959320,392.571381 399.082397,391.493591 408.689301,402.386017 
	C408.864594,399.911926 409.008789,397.876465 409.177795,395.491150 
	C411.038177,395.491150 412.930450,395.491150 414.986481,395.491150 
	C414.986481,408.976227 415.363831,422.466309 414.852722,435.922668 
	C414.516754,444.768311 407.266785,450.381317 397.687561,450.528778 
	C388.171417,450.675323 381.120270,445.398529 380.042572,437.323669 
	C383.354889,436.401215 385.644714,436.876862 387.769684,440.296112 
	C390.488129,444.670288 395.369232,445.441193 400.207214,444.449921 
	C405.141541,443.438965 408.026031,440.038544 408.666992,435.137451 
	C409.073364,432.029907 408.742920,428.826050 408.742920,425.067078 
	C403.473022,432.632568 396.454529,434.479553 388.303558,431.668854 
	C379.519104,428.639679 375.388458,417.757050 378.591095,406.817719 
	C378.778015,406.179291 379.006531,405.553009 379.388123,404.580322 
M401.348663,401.614380 
	C400.066132,401.315613 398.797974,400.868683 397.498657,400.742432 
	C389.749817,399.989594 384.366638,405.048187 384.085571,413.268402 
	C383.794830,421.770874 388.949829,427.372650 396.812134,427.097961 
	C402.424500,426.901917 406.482269,423.735779 408.111084,418.281738 
	C410.093536,411.643646 408.057159,406.101410 401.348663,401.614380 
z"/>
<path fill="#2B2828" opacity="1.000000" stroke="none" 
	d="
M127.953636,431.819153 
	C125.966797,432.317566 124.174416,432.456543 122.183067,432.610992 
	C121.894859,430.431641 121.647072,428.557953 121.373718,426.490967 
	C111.342384,434.459564 101.394165,434.782532 95.038536,427.576996 
	C88.603683,420.281586 89.083481,405.735199 95.976418,399.143402 
	C102.657265,392.754364 113.107742,393.575073 121.496155,401.804871 
	C121.496155,395.046295 121.496155,388.950012 121.496155,382.660095 
	C124.006516,382.660095 125.789986,382.660095 128.148102,382.660095 
	C128.148102,398.975128 128.148102,415.217438 127.953636,431.819153 
M104.507225,401.361877 
	C98.114662,405.013794 95.624283,411.103241 97.614449,418.216003 
	C99.239098,424.022430 103.336533,427.161133 109.254333,427.132324 
	C115.029213,427.104218 119.463783,423.775543 121.061646,418.269623 
	C124.256706,407.260132 117.041969,399.402832 104.507225,401.361877 
z"/>
<path fill="#2D2A2A" opacity="1.000000" stroke="none" 
	d="
M540.030640,416.794586 
	C544.312683,416.461975 542.872681,418.580963 542.059692,420.401550 
	C538.196655,429.052521 528.934509,433.958710 518.601929,432.831116 
	C508.834900,431.765228 501.110596,424.936981 499.043671,415.541779 
	C496.214447,402.681519 501.123199,390.981781 511.319672,386.282745 
	C524.316040,380.293396 539.660400,386.900543 542.948303,400.188477 
	C539.575500,400.847778 537.029053,401.101013 534.750244,397.256012 
	C531.548889,391.854248 526.089661,389.825317 519.764587,390.427429 
	C513.123047,391.059570 508.728790,394.648682 506.395111,400.756622 
	C502.597961,410.694977 506.552094,422.052948 514.914551,425.556976 
	C522.340027,428.668427 530.455872,426.159821 535.194641,419.615112 
	C536.152344,418.292450 538.139587,417.715271 540.030640,416.794586 
z"/>
<path fill="#2F2C2C" opacity="1.000000" stroke="none" 
	d="
M82.873764,403.095520 
	C82.873764,413.036011 82.873764,422.491119 82.873764,432.253662 
	C80.570320,432.253662 78.656174,432.253662 76.409813,432.253662 
	C76.246750,430.267090 76.088821,428.343048 75.876381,425.755005 
	C71.811951,430.954529 66.694466,433.885529 60.651157,432.636078 
	C56.656998,431.810242 52.238220,429.892120 49.439919,427.053162 
	C42.649296,420.163818 43.826057,404.901215 50.877254,398.785858 
	C57.968628,392.635620 68.432083,393.768921 75.930046,401.834320 
	C76.054321,399.604095 76.159615,397.714661 76.284225,395.478363 
	C78.282967,395.478363 80.202095,395.478363 82.873772,395.478363 
	C82.873772,397.765228 82.873772,400.187683 82.873764,403.095520 
M74.382523,406.437439 
	C69.966843,400.754822 63.345417,398.995361 57.793076,402.029358 
	C52.450024,404.948975 50.123154,412.283508 52.355564,419.168823 
	C54.160328,424.735168 59.417526,427.797241 65.775497,426.985260 
	C74.335617,425.892029 78.307335,417.139648 74.382523,406.437439 
z"/>
<path fill="#2B2828" opacity="1.000000" stroke="none" 
	d="
M178.798920,427.163330 
	C174.093765,420.987396 173.431274,414.324158 175.225220,407.462311 
	C177.686127,398.049377 187.052628,393.009552 197.259521,395.230194 
	C206.334824,397.204651 211.207962,404.711029 209.881989,415.050110 
	C200.488632,415.050110 191.045105,415.050110 181.669479,415.050110 
	C180.575699,420.388031 182.636215,424.408600 187.319748,426.515564 
	C192.261032,428.738434 199.568024,427.452667 201.583282,423.091034 
	C203.497437,418.948242 206.176636,419.121277 210.015411,419.807465 
	C208.839569,425.504272 205.634872,429.421173 200.330841,431.381409 
	C192.536880,434.261902 185.295166,433.283081 178.798920,427.163330 
M203.308090,407.552612 
	C200.604172,401.625732 195.586182,398.963654 189.775436,400.373413 
	C184.003906,401.773682 180.922821,405.924072 181.337662,411.841949 
	C188.776825,411.841949 196.222137,411.841949 203.856903,411.841949 
	C203.777771,410.558838 203.708237,409.431091 203.308090,407.552612 
z"/>
<path fill="#60BDB5" opacity="1.000000" stroke="none" 
	d="
M804.954956,160.959396 
	C800.923462,166.490036 797.760376,173.056152 792.670593,177.325012 
	C783.482178,185.031372 773.141846,191.364212 762.549805,198.018127 
	C761.540405,191.157532 761.263794,184.549500 761.229187,177.683075 
	C765.979919,175.515778 770.488525,173.606842 775.328857,171.623901 
	C779.788330,169.377533 783.916138,167.205185 788.043945,165.032806 
	C793.450195,163.692505 798.856384,162.352219 804.627869,161.004181 
	C804.993103,160.996429 804.954956,160.959381 804.954956,160.959396 
z"/>
<path fill="#56B3B5" opacity="1.000000" stroke="none" 
	d="
M760.987122,177.941467 
	C761.263794,184.549500 761.540405,191.157532 762.202271,198.030670 
	C753.021118,202.277985 743.454773,206.260193 733.463928,209.792419 
	C732.993774,201.777145 732.948059,194.211838 733.188354,186.435242 
	C740.314758,184.091522 747.155151,181.959106 754.359375,179.825333 
	C756.811157,179.196457 758.899170,178.568954 760.987122,177.941467 
z"/>
<path fill="#2D2A2A" opacity="1.000000" stroke="none" 
	d="
M370.204285,412.464172 
	C370.204559,419.229340 370.204559,425.538147 370.204559,432.201538 
	C368.065399,432.201538 366.181030,432.201538 363.794830,432.201538 
	C363.794830,425.264252 363.928436,418.306244 363.761261,411.355438 
	C363.549164,402.537598 356.478058,397.711456 348.840973,401.069214 
	C344.097137,403.154938 342.628693,407.270996 342.579651,412.052277 
	C342.511688,418.676453 342.562592,425.301849 342.562592,432.240417 
	C340.255829,432.240417 338.365051,432.240417 336.234161,432.240417 
	C336.234161,419.905670 336.234161,407.683472 336.234161,395.296387 
	C338.273529,395.296387 340.055267,395.296387 342.121368,395.296387 
	C342.378693,397.087311 342.630829,398.842529 342.782623,399.899048 
	C346.139557,398.286072 349.431152,395.845367 353.063416,395.126923 
	C362.426971,393.274841 370.641907,398.673279 370.204285,412.464172 
z"/>
<path fill="#4FAAB6" opacity="1.000000" stroke="none" 
	d="
M732.902405,186.646530 
	C732.948059,194.211838 732.993774,201.777145 733.068848,209.839111 
	C725.026123,212.338043 716.954041,214.340302 708.445740,215.850555 
	C707.995056,208.195221 707.980652,201.031891 708.183838,193.571671 
	C711.648376,192.333084 714.895264,191.391403 718.538208,190.377762 
	C723.590271,189.086029 728.246338,187.866287 732.902405,186.646530 
z"/>
<path fill="#DB3775" opacity="1.000000" stroke="none" 
	d="
M591.090515,204.383270 
	C594.420532,206.444916 597.908936,208.599365 600.760925,211.401459 
	C607.507812,218.030258 613.952271,224.966827 620.794067,232.284027 
	C618.438660,236.995529 615.808228,241.201996 613.038208,245.075974 
	C605.986694,237.718048 599.116760,230.650055 592.112488,223.717880 
	C591.176392,222.791489 589.560059,222.552536 588.258789,221.995239 
	C589.159058,216.253632 590.059326,210.512039 591.090515,204.383270 
z"/>
<path fill="#2B2828" opacity="1.000000" stroke="none" 
	d="
M311.211395,404.749054 
	C310.426086,405.753021 309.450897,407.003540 308.695007,406.882690 
	C307.376068,406.671753 305.569611,405.917694 305.059479,404.863068 
	C302.862335,400.320953 299.153839,398.965027 294.775879,400.118317 
	C292.956482,400.597534 290.592316,402.825684 290.378906,404.500916 
	C290.169495,406.144867 291.965057,408.909363 293.609314,409.740265 
	C296.813141,411.359253 300.535980,411.938141 304.025696,413.007172 
	C309.831146,414.785522 312.128387,417.654816 312.017853,422.884918 
	C311.915527,427.726593 308.911072,431.088379 303.475983,432.442810 
	C294.039612,434.794403 285.714355,430.108307 283.953522,421.082642 
	C285.732361,420.954346 287.466949,420.829224 289.513031,420.681610 
	C291.164398,425.976776 294.918518,428.775970 300.295074,427.800262 
	C302.374603,427.422882 305.064178,425.115051 305.587524,423.176819 
	C305.985840,421.701752 303.828156,418.586395 302.052429,417.679138 
	C298.717010,415.975189 294.844849,415.307037 291.178619,414.269135 
	C286.648346,412.986572 284.050446,410.138855 284.005798,405.337372 
	C283.962006,400.626831 286.398438,397.542633 290.695618,395.850250 
	C299.272186,392.472412 307.579132,395.948914 311.211395,404.749054 
z"/>
<path fill="#2D2A2A" opacity="1.000000" stroke="none" 
	d="
M141.838226,398.016907 
	C145.259811,406.983887 148.552353,415.579987 152.197830,425.097534 
	C155.600357,416.140320 158.581390,408.280579 161.571823,400.424438 
	C163.667603,394.918610 163.673325,394.920776 170.293198,395.459045 
	C168.764206,399.544708 167.335175,403.495972 165.810196,407.409882 
	C162.863434,414.972870 160.006638,422.578064 156.744904,430.004303 
	C156.189529,431.268799 153.818069,432.348480 152.257828,432.386932 
	C150.686874,432.425690 148.139267,431.452820 147.637329,430.248810 
	C142.868210,418.809448 138.443832,407.226288 133.920303,395.684509 
	C134.226654,395.208527 134.533020,394.732544 134.839371,394.256561 
	C137.129303,395.386383 139.419250,396.516235 141.838226,398.016907 
z"/>
<path fill="#48A2B7" opacity="1.000000" stroke="none" 
	d="
M707.966248,193.868576 
	C707.980652,201.031891 707.995056,208.195221 708.017395,215.860962 
	C700.962952,217.958145 693.900696,219.552887 686.420898,220.659119 
	C685.669495,213.911957 685.335571,207.653259 685.343872,201.223419 
	C688.843140,199.835266 692.000183,198.618271 695.543701,197.324966 
	C699.283325,196.148972 702.636536,195.049286 706.320068,193.970764 
	C707.088989,193.950821 707.527649,193.909698 707.966248,193.868576 
z"/>
<path fill="#4299B8" opacity="1.000000" stroke="none" 
	d="
M685.001648,201.394577 
	C685.335571,207.653259 685.669495,213.911957 686.006714,220.647308 
	C677.892395,223.911255 669.774841,226.698532 661.323669,229.117584 
	C660.995056,223.263885 661.000061,217.778442 661.201843,212.133362 
	C661.621033,211.729843 661.843567,211.485962 662.378052,211.055420 
	C666.131409,209.218155 669.572937,207.567551 673.373535,205.889389 
	C677.235535,204.298950 680.738464,202.736069 684.435425,201.214737 
	C684.629517,201.256271 685.001648,201.394577 685.001648,201.394577 
z"/>
<path fill="#3D3B3B" opacity="1.000000" stroke="none" 
	d="
M441.365417,400.008118 
	C441.365479,394.859619 441.365479,390.209351 441.365479,385.152893 
	C443.542328,385.152893 445.568359,385.152893 448.005005,385.152893 
	C448.005005,399.159088 448.005005,413.051056 448.005005,427.322540 
	C453.658630,427.322540 458.920197,427.322540 464.537048,427.322540 
	C464.693512,429.060883 464.818329,430.447937 464.980469,432.249451 
	C457.113678,432.249451 449.587433,432.249451 441.365326,432.249451 
	C441.365326,421.651581 441.365326,411.078949 441.365417,400.008118 
z"/>
<path fill="#2D2A2A" opacity="1.000000" stroke="none" 
	d="
M470.795837,408.999329 
	C470.795868,400.846558 470.795868,393.193756 470.795868,385.168152 
	C472.784851,385.168152 474.660065,385.168152 476.937134,385.168152 
	C476.937134,399.013031 476.937134,412.921631 476.937134,427.300812 
	C482.710846,427.300812 488.114716,427.300812 493.763306,427.300812 
	C493.763306,429.198181 493.763306,430.620972 493.763306,432.306519 
	C486.276794,432.306519 478.838043,432.306519 470.795807,432.306519 
	C470.795807,424.723175 470.795807,417.111267 470.795837,408.999329 
z"/>
<path fill="#EE4A5F" opacity="1.000000" stroke="none" 
	d="
M788.232727,164.774384 
	C783.916138,167.205185 779.788330,169.377533 775.329834,171.177429 
	C774.999451,168.972183 775.075195,167.135742 774.986267,165.307312 
	C774.689392,159.202652 774.333374,153.100845 774.000000,146.997955 
	C777.226562,145.223312 780.453064,143.448669 783.845459,141.374741 
	C786.104858,140.063904 788.198486,139.052338 790.644836,138.427063 
	C791.330566,146.465134 791.663574,154.116943 791.996521,161.768723 
	C790.804810,162.684448 789.613159,163.600189 788.232727,164.774384 
z"/>
<path fill="#2A2727" opacity="1.000000" stroke="none" 
	d="
M252.181778,388.091431 
	C252.187042,390.532196 252.187042,392.504761 252.187042,395.034546 
	C255.521988,395.034546 258.579010,395.034546 261.816406,395.034546 
	C261.816406,397.193604 261.816406,398.784668 261.816406,400.747803 
	C258.712524,400.747803 255.769989,400.747803 252.521835,400.747803 
	C252.521835,408.021759 252.332031,414.941559 252.578613,421.845825 
	C252.797226,427.966583 257.949707,426.352234 261.786194,427.039062 
	C261.786194,428.664612 261.786194,430.276123 261.786194,431.899292 
	C251.016891,434.222290 245.993134,430.244293 245.981567,419.376617 
	C245.975372,413.555450 245.955093,407.734314 245.931061,401.913177 
	C245.930435,401.761444 245.812439,401.610138 245.568115,401.024841 
	C244.073654,400.924683 242.355362,400.809540 240.402328,400.678680 
	C240.402328,398.822113 240.402328,397.250549 240.402328,395.393188 
	C242.169830,395.256256 243.789642,395.130768 245.743973,394.979401 
	C245.743973,392.251160 245.743973,389.487030 245.743973,385.297333 
	C248.342224,386.236816 250.259369,386.930023 252.181778,388.091431 
z"/>
<path fill="#F27249" opacity="1.000000" stroke="none" 
	d="
M818.047607,108.030769 
	C820.076233,104.552284 822.104858,101.073814 824.648438,97.253555 
	C825.455322,96.595779 825.747253,96.279785 826.039185,95.963806 
	C826.039185,95.963806 826.042908,96.017693 826.019531,96.030190 
	C831.050354,93.474678 836.104553,90.906670 841.762817,88.031754 
	C837.508240,103.307777 831.197021,116.995979 822.185059,129.663361 
	C821.380188,124.204376 821.424561,118.811256 820.872803,113.479851 
	C820.676819,111.586304 819.031311,109.842781 818.047607,108.030769 
z"/>
<path fill="#CB3979" opacity="1.000000" stroke="none" 
	d="
M588.143555,222.412643 
	C589.560059,222.552536 591.176392,222.791489 592.112488,223.717880 
	C599.116760,230.650055 605.986694,237.718048 613.010010,245.407959 
	C611.380615,249.374298 609.640015,252.676163 607.561157,255.945709 
	C602.101868,251.062256 597.033630,246.153229 591.826782,241.396057 
	C590.311768,240.011902 588.400452,239.061584 586.670776,237.912384 
	C587.123291,232.884949 587.575867,227.857498 588.143555,222.412643 
z"/>
<path fill="#398FB9" opacity="1.000000" stroke="none" 
	d="
M661.005127,212.292999 
	C661.000061,217.778442 660.995056,223.263885 660.987793,229.191101 
	C653.531311,234.674088 646.077209,239.715347 638.259644,244.474777 
	C637.597412,241.414093 637.463196,238.603149 636.930176,235.869949 
	C636.664368,234.506668 635.668762,233.285675 635.142456,231.707001 
	C636.877686,229.699097 638.473694,227.984512 640.355408,226.072861 
	C644.452454,222.997787 648.263733,220.119766 652.409180,217.134308 
	C655.497314,215.448929 658.251221,213.870972 661.005127,212.292999 
z"/>
<path fill="#F05D4F" opacity="1.000000" stroke="none" 
	d="
M817.886841,108.329224 
	C819.031311,109.842781 820.676819,111.586304 820.872803,113.479851 
	C821.424561,118.811256 821.380188,124.204376 821.907227,129.849121 
	C817.688599,135.984039 813.133545,141.843018 807.881836,147.756592 
	C806.790100,146.139297 806.174744,144.484879 806.040405,142.792297 
	C805.595337,137.184570 805.323547,131.563080 804.985352,125.946869 
	C809.232239,120.173798 813.479187,114.400734 817.886841,108.329224 
z"/>
<path fill="#BC3B7D" opacity="1.000000" stroke="none" 
	d="
M586.462402,238.262711 
	C588.400452,239.061584 590.311768,240.011902 591.826782,241.396057 
	C597.033630,246.153229 602.101868,251.062256 607.595459,256.271576 
	C607.970215,257.066071 607.972290,257.502441 607.708862,258.162048 
	C605.581482,262.578247 603.719604,266.771179 601.521362,270.930786 
	C599.436646,269.225464 597.707031,267.533356 595.936035,265.885742 
	C592.378662,262.576172 588.798645,259.290863 585.227966,255.995529 
	C585.570007,250.201355 585.911987,244.407196 586.462402,238.262711 
z"/>
<path fill="#EF5357" opacity="1.000000" stroke="none" 
	d="
M804.688232,126.090729 
	C805.323547,131.563080 805.595337,137.184570 806.040405,142.792297 
	C806.174744,144.484879 806.790100,146.139297 807.579956,147.901840 
	C802.858398,152.526627 797.742065,157.060760 792.311157,161.681824 
	C791.663574,154.116943 791.330566,146.465134 790.994263,138.370972 
	C793.884277,135.485916 796.777649,133.043198 799.800049,130.293625 
	C801.416382,128.736038 802.903748,127.485321 804.688232,126.090729 
z"/>
<path fill="#363333" opacity="1.000000" stroke="none" 
	d="
M229.776215,396.761871 
	C232.600479,395.857361 235.083069,395.125000 237.989883,394.267487 
	C237.989883,396.953125 237.989883,398.891266 237.989883,400.872040 
	C237.786163,401.049652 237.573318,401.394531 237.302658,401.448303 
	C225.789307,403.734924 224.622086,405.144897 224.601715,416.899902 
	C224.593109,421.873077 224.600296,426.846252 224.600296,432.206329 
	C222.415619,432.206329 220.544189,432.206329 218.385986,432.206329 
	C218.385986,420.040680 218.385986,407.966583 218.385986,395.498138 
	C220.240295,395.498138 222.107117,395.498138 224.253784,395.498138 
	C224.474258,397.004730 224.702148,398.561859 224.977737,400.445007 
	C226.650253,399.127411 228.042389,398.030731 229.776215,396.761871 
z"/>
<path fill="#3286BA" opacity="1.000000" stroke="none" 
	d="
M635.003235,232.000336 
	C635.668762,233.285675 636.664368,234.506668 636.930176,235.869949 
	C637.463196,238.603149 637.597412,241.414093 637.950562,244.604950 
	C631.133850,253.845337 624.262817,262.673706 616.821899,271.543274 
	C615.475525,269.001587 614.699097,266.418671 613.971436,263.489929 
	C618.063171,255.891769 622.106018,248.639435 626.409668,241.145660 
	C629.447998,237.936264 632.225586,234.968292 635.003235,232.000336 
z"/>
<path fill="#317FBC" opacity="1.000000" stroke="none" 
	d="
M613.922607,263.835785 
	C614.699097,266.418671 615.475525,269.001587 616.568604,271.767334 
	C605.120361,292.433472 597.415100,314.365723 593.504395,337.640564 
	C592.926697,341.078461 592.728455,344.585876 592.027466,347.993774 
	C591.814941,349.026855 590.502197,349.833588 589.430359,350.235901 
	C589.567200,346.965698 589.808228,344.169464 590.393555,341.447266 
	C593.511597,326.946747 596.715820,312.464722 599.975098,297.608337 
	C603.709412,287.495148 607.358826,277.749908 611.260864,267.809143 
	C612.316467,266.354370 613.119568,265.095062 613.922607,263.835785 
z"/>
<path fill="#A93D83" opacity="1.000000" stroke="none" 
	d="
M585.133423,256.439880 
	C588.798645,259.290863 592.378662,262.576172 595.936035,265.885742 
	C597.707031,267.533356 599.436646,269.225464 601.426575,271.278198 
	C599.485413,277.467102 597.302673,283.275208 594.768127,289.031616 
	C593.024475,287.900330 591.680237,286.751312 590.229126,285.758331 
	C588.298401,284.437134 586.284485,283.237427 584.306335,281.985535 
	C584.285950,279.582703 584.265564,277.179901 584.526428,274.003601 
	C584.862610,270.798737 584.917542,268.367371 584.972534,265.936005 
	C584.994629,262.918762 585.016724,259.901489 585.133423,256.439880 
z"/>
<path fill="#95428A" opacity="1.000000" stroke="none" 
	d="
M584.205322,282.445557 
	C586.284485,283.237427 588.298401,284.437134 590.229126,285.758331 
	C591.680237,286.751312 593.024475,287.900330 594.745483,289.397430 
	C595.076599,290.552216 595.078491,291.289490 595.046997,292.418701 
	C593.346375,299.875397 591.679138,306.940125 589.658325,313.967102 
	C587.327026,313.286224 585.349304,312.643066 583.371460,311.999908 
	C583.615723,302.301788 583.859985,292.603668 584.205322,282.445557 
z"/>
<path fill="#3D3B3B" opacity="1.000000" stroke="none" 
	d="
M274.490967,432.451080 
	C272.629578,432.586639 271.165955,432.586639 269.393494,432.586639 
	C269.393494,419.992645 269.393494,407.795471 269.393494,395.340027 
	C271.340210,395.340027 273.104279,395.340027 275.634705,395.340027 
	C275.634705,399.919525 275.720917,404.505890 275.615417,409.087830 
	C275.437073,416.831879 275.137390,424.573120 274.490967,432.451080 
z"/>
<path fill="#363333" opacity="1.000000" stroke="none" 
	d="
M319.955933,413.000671 
	C319.955933,406.866760 319.955933,401.232391 319.955933,395.355835 
	C322.255249,395.355835 324.154572,395.355835 326.327759,395.355835 
	C326.327759,407.637970 326.327759,419.737854 326.327759,432.219116 
	C324.387543,432.219116 322.499329,432.219116 319.955933,432.219116 
	C319.955933,426.029083 319.955933,419.764618 319.955933,413.000671 
z"/>
<path fill="#534599" opacity="1.000000" stroke="none" 
	d="
M590.011902,314.004883 
	C591.679138,306.940125 593.346375,299.875397 595.399475,292.483582 
	C597.153687,294.096436 598.521912,296.036377 599.890198,297.976288 
	C596.715820,312.464722 593.511597,326.946747 590.393555,341.447266 
	C589.808228,344.169464 589.567200,346.965698 589.052368,350.082886 
	C588.497925,350.437347 588.058289,350.436707 587.302002,349.928864 
	C587.994141,337.616058 589.002991,325.810486 590.011902,314.004883 
z"/>
<path fill="#833F8B" opacity="1.000000" stroke="none" 
	d="
M589.658325,313.967102 
	C589.002991,325.810486 587.994141,337.616058 586.989502,349.810547 
	C585.902649,350.485504 584.811462,350.771606 583.194092,351.195648 
	C583.194092,338.196381 583.194092,325.560059 583.282837,312.461853 
	C585.349304,312.643066 587.327026,313.286224 589.658325,313.967102 
z"/>
<path fill="#EE4A5F" opacity="1.000000" stroke="none" 
	d="
M586.920532,370.793121 
	C582.528992,370.523346 580.404663,367.681427 580.184509,363.787598 
	C579.960815,359.831360 582.036438,356.958130 586.569702,356.535187 
	C586.936401,361.609406 586.928467,366.201263 586.920532,370.793121 
z"/>
<path fill="#2F2C2C" opacity="1.000000" stroke="none" 
	d="
M276.771545,384.171936 
	C276.319183,385.529419 275.938019,387.272736 275.270020,387.390594 
	C273.360352,387.727570 271.163391,387.831055 269.434357,387.139282 
	C268.700287,386.845581 268.166168,383.449738 268.733459,383.013275 
	C270.201294,381.883911 272.312317,381.278778 274.207855,381.167297 
	C274.987885,381.121399 275.873932,382.878479 276.771545,384.171936 
z"/>
<path fill="#2F2C2C" opacity="1.000000" stroke="none" 
	d="
M325.724182,381.288055 
	C328.248657,384.148224 328.440002,386.717590 324.822235,387.998688 
	C323.460754,388.480804 321.243225,387.808716 319.994354,386.882690 
	C319.216644,386.306061 318.985382,383.307220 319.436005,383.055542 
	C321.237518,382.049469 323.401917,381.693268 325.724182,381.288055 
z"/>
<path fill="#BC3B7D" opacity="1.000000" stroke="none" 
	d="
M587.279053,370.881836 
	C586.928467,366.201263 586.936401,361.609406 586.930969,356.559509 
	C588.123962,356.189056 589.330322,356.276672 590.769897,357.104370 
	C590.999939,361.896790 590.996765,365.949097 590.993591,370.001404 
	C589.874939,370.324463 588.756287,370.647522 587.279053,370.881836 
z"/>
<path fill="#95428A" opacity="1.000000" stroke="none" 
	d="
M591.347900,369.929138 
	C590.996765,365.949097 590.999939,361.896790 591.014038,357.374634 
	C596.532593,360.481995 596.782532,365.260254 591.347900,369.929138 
z"/>
<path fill="#95428A" opacity="1.000000" stroke="none" 
	d="
M584.785767,266.280457 
	C584.917542,268.367371 584.862610,270.798737 584.611206,273.558777 
	C584.476196,271.466583 584.537659,269.045746 584.785767,266.280457 
z"/>
<path fill="#60BDB5" opacity="1.000000" stroke="none" 
	d="
M805.010254,161.016724 
	C805.125183,161.015671 805.222900,160.994308 805.137817,160.966156 
	C804.954956,160.959381 804.993103,160.996429 805.010254,161.016724 
z"/>
<path fill="#FFFFFF" opacity="1.000000" stroke="none" 
	d="
M825.672302,95.888779 
	C825.747253,96.279785 825.455322,96.595779 824.810486,96.978996 
	C824.740173,96.635406 825.022766,96.224586 825.672302,95.888779 
z"/>
<path fill="#FEFEFE" opacity="1.000000" stroke="none" 
	d="
M754.458313,283.158295 
	C771.205994,277.790710 785.782776,281.526764 794.720581,293.487427 
	C807.820190,311.017365 803.444763,344.663025 777.245728,351.456482 
	C758.428894,356.335663 740.600830,346.455872 736.389221,327.504456 
	C733.092896,312.671906 734.738892,298.637604 746.958740,287.761230 
	C749.024719,285.922424 751.698059,284.766052 754.458313,283.158295 
z"/>
<path fill="#FEFEFE" opacity="1.000000" stroke="none" 
	d="
M366.665344,300.686646 
	C370.620270,313.441467 370.868652,325.708679 364.074280,337.139923 
	C356.599854,349.715302 344.833893,353.678986 330.810638,352.148407 
	C318.336823,350.787018 308.309875,342.442261 304.858704,330.571533 
	C300.956818,317.150391 301.570892,304.238342 310.045563,292.592957 
	C322.634613,275.293854 356.500275,275.722382 366.665344,300.686646 
z"/>
<path fill="#FEFEFE" opacity="1.000000" stroke="none" 
	d="
M227.849472,305.460999 
	C230.777481,320.716217 229.456421,334.698730 217.146927,345.072998 
	C206.722198,353.858795 194.377014,354.842590 181.987274,349.856232 
	C168.756317,344.531342 163.470459,333.324982 162.613235,319.859131 
	C161.847107,307.823944 164.376617,296.696747 173.932785,288.253113 
	C188.880066,275.046021 221.008087,277.882385 227.849472,305.460999 
z"/>
<path fill="#EC386E" opacity="1.000000" stroke="none" 
	d="
M733.188354,186.435242 
	C728.246338,187.866287 723.590271,189.086029 718.376587,189.948685 
	C717.533325,181.694641 717.247742,173.797699 716.962158,165.900757 
	C722.419373,164.031555 727.876587,162.162369 733.671143,160.130920 
	C740.074524,158.308212 746.140564,156.647751 752.652954,155.389984 
	C753.398071,163.804016 753.696777,171.815369 753.995544,179.826706 
	C747.155151,181.959106 740.314758,184.091522 733.188354,186.435242 
z"/>
<path fill="#ED3F68" opacity="1.000000" stroke="none" 
	d="
M754.359375,179.825348 
	C753.696777,171.815369 753.398071,163.804016 753.046448,155.371857 
	C756.111450,153.727646 759.229248,152.504257 762.677979,151.121262 
	C766.428650,149.665375 769.848328,148.369080 773.634033,147.035370 
	C774.333374,153.100845 774.689392,159.202652 774.986267,165.307312 
	C775.075195,167.135742 774.999451,168.972183 774.998169,171.251434 
	C770.488525,173.606842 765.979919,175.515778 761.229187,177.683075 
	C758.899170,178.568954 756.811157,179.196457 754.359375,179.825348 
z"/>
<path fill="#DB3775" opacity="1.000000" stroke="none" 
	d="
M716.561523,165.929443 
	C717.247742,173.797699 717.533325,181.694641 717.980591,190.020660 
	C714.895264,191.391403 711.648376,192.333084 708.183838,193.571671 
	C707.527649,193.909698 707.088989,193.950821 706.321533,193.505798 
	C705.650330,185.325058 705.308044,177.630432 704.965698,169.935806 
	C705.242859,169.485199 705.520020,169.034607 705.907837,168.345276 
	C709.399231,167.390427 712.780029,166.674286 716.561523,165.929443 
z"/>
<path fill="#CB3979" opacity="1.000000" stroke="none" 
	d="
M704.574524,169.954559 
	C705.308044,177.630432 705.650330,185.325058 705.991150,193.484650 
	C702.636536,195.049286 699.283325,196.148972 695.371948,196.902023 
	C694.536072,189.018402 694.258362,181.481400 693.980652,173.944412 
	C697.381531,172.620712 700.782410,171.297012 704.574524,169.954559 
z"/>
<path fill="#C4397A" opacity="1.000000" stroke="none" 
	d="
M693.603149,173.966309 
	C694.258362,181.481400 694.536072,189.018402 694.985474,196.978333 
	C692.000183,198.618271 688.843140,199.835266 685.343872,201.223419 
	C685.001648,201.394577 684.629517,201.256271 684.100586,200.924896 
	C683.381165,198.145569 683.178223,195.698502 683.002747,193.249466 
	C682.662720,188.505157 682.338135,183.759735 682.007202,179.014771 
	C682.007202,179.014771 682.027710,178.553772 682.030029,178.324097 
	C685.763489,176.725693 689.494568,175.356964 693.603149,173.966309 
z"/>
<path fill="#A93D83" opacity="1.000000" stroke="none" 
	d="
M673.014404,205.916946 
	C669.572937,207.567551 666.131409,209.218155 662.356689,210.565430 
	C662.015442,205.682587 662.176575,201.093018 661.905701,196.529099 
	C661.813538,194.975632 660.633667,193.486710 659.950745,191.968307 
	C659.950745,191.968307 659.990479,191.491180 660.017578,191.253418 
	C664.126038,188.691849 668.207336,186.368027 672.643494,184.462814 
	C673.003662,191.893250 673.009033,198.905106 673.014404,205.916946 
z"/>
<path fill="#BC3B7D" opacity="1.000000" stroke="none" 
	d="
M673.373535,205.889389 
	C673.009033,198.905106 673.003662,191.893250 672.997009,184.405273 
	C675.761414,182.309708 678.527222,180.690292 681.650085,179.042831 
	C682.338135,183.759735 682.662720,188.505157 683.002747,193.249466 
	C683.178223,195.698502 683.381165,198.145569 683.906494,200.883362 
	C680.738464,202.736069 677.235535,204.298950 673.373535,205.889389 
z"/>
<path fill="#95428A" opacity="1.000000" stroke="none" 
	d="
M652.074951,217.241730 
	C648.263733,220.119766 644.452454,222.997787 640.333435,225.590607 
	C639.657593,220.441498 639.289490,215.577576 638.921387,210.713638 
	C638.952576,210.365356 638.983826,210.017075 639.038940,209.409241 
	C642.835388,205.840302 646.607971,202.530914 650.696533,199.501312 
	C651.366638,205.601318 651.720764,211.421524 652.074951,217.241730 
z"/>
<path fill="#9F3C84" opacity="1.000000" stroke="none" 
	d="
M652.409180,217.134308 
	C651.720764,211.421524 651.366638,205.601318 650.998535,199.350037 
	C653.768250,196.693542 656.551880,194.468140 659.643188,192.105530 
	C660.633667,193.486710 661.813538,194.975632 661.905701,196.529099 
	C662.176575,201.093018 662.015442,205.682587 662.044800,210.752090 
	C661.843567,211.485962 661.621033,211.729843 661.201843,212.133392 
	C658.251221,213.870972 655.497314,215.448929 652.409180,217.134308 
z"/>
<path fill="#704291" opacity="1.000000" stroke="none" 
	d="
M613.971436,263.489929 
	C613.119568,265.095062 612.316467,266.354370 610.980957,267.563110 
	C609.623840,264.321289 608.799072,261.130035 607.974365,257.938782 
	C607.972290,257.502441 607.970215,257.066071 607.933716,256.303894 
	C609.640015,252.676163 611.380615,249.374298 613.149475,245.740448 
	C615.808228,241.201996 618.438660,236.995529 621.105347,232.426605 
	C621.569031,231.765686 621.996521,231.467239 623.056152,231.150024 
	C624.508423,234.549866 625.328613,237.968475 626.148926,241.387085 
	C622.106018,248.639435 618.063171,255.891769 613.971436,263.489929 
z"/>
<path fill="#833F8B" opacity="1.000000" stroke="none" 
	d="
M626.409607,241.145660 
	C625.328613,237.968475 624.508423,234.549866 623.293945,231.038086 
	C628.052979,224.336655 633.206177,217.728409 638.640381,210.916901 
	C639.289490,215.577576 639.657593,220.441498 640.047668,225.787674 
	C638.473694,227.984512 636.877686,229.699097 635.142456,231.707001 
	C632.225586,234.968292 629.447998,237.936264 626.409607,241.145660 
z"/>
<path fill="#FCFCFC" opacity="1.000000" stroke="none" 
	d="
M401.723694,401.766418 
	C408.057159,406.101410 410.093536,411.643646 408.111084,418.281738 
	C406.482269,423.735779 402.424500,426.901917 396.812134,427.097961 
	C388.949829,427.372650 383.794830,421.770874 384.085571,413.268402 
	C384.366638,405.048187 389.749817,399.989594 397.498657,400.742432 
	C398.797974,400.868683 400.066132,401.315613 401.723694,401.766418 
z"/>
<path fill="#FCFCFC" opacity="1.000000" stroke="none" 
	d="
M104.903397,401.232788 
	C117.041969,399.402832 124.256706,407.260132 121.061646,418.269623 
	C119.463783,423.775543 115.029213,427.104218 109.254333,427.132324 
	C103.336533,427.161133 99.239098,424.022430 97.614449,418.216003 
	C95.624283,411.103241 98.114662,405.013794 104.903397,401.232788 
z"/>
<path fill="#FCFCFC" opacity="1.000000" stroke="none" 
	d="
M74.587906,406.775208 
	C78.307335,417.139648 74.335617,425.892029 65.775497,426.985260 
	C59.417526,427.797241 54.160328,424.735168 52.355564,419.168823 
	C50.123154,412.283508 52.450024,404.948975 57.793076,402.029358 
	C63.345417,398.995361 69.966843,400.754822 74.587906,406.775208 
z"/>
<path fill="#FCFCFC" opacity="1.000000" stroke="none" 
	d="
M203.473389,407.927979 
	C203.708237,409.431091 203.777771,410.558838 203.856903,411.841949 
	C196.222137,411.841949 188.776825,411.841949 181.337662,411.841949 
	C180.922821,405.924072 184.003906,401.773682 189.775436,400.373413 
	C195.586182,398.963654 200.604172,401.625732 203.473389,407.927979 
z"/>
<path fill="#5F4395" opacity="1.000000" stroke="none" 
	d="
M607.708862,258.162048 
	C608.799072,261.130035 609.623840,264.321289 610.728394,267.758606 
	C607.358826,277.749908 603.709412,287.495148 599.975098,297.608337 
	C598.521912,296.036377 597.153687,294.096436 595.432922,292.091614 
	C595.078491,291.289490 595.076599,290.552216 595.097290,289.449158 
	C597.302673,283.275208 599.485413,277.467102 601.763000,271.311554 
	C603.719604,266.771179 605.581482,262.578247 607.708862,258.162048 
z"/>
</svg>